<svg width="404" height="474" viewBox="0 0 404 474" fill="none" xmlns="http://www.w3.org/2000/svg">
<rect width="72.8706" height="72.8706" transform="matrix(0.866025 0.5 -0.866025 0.5 63.1078 91)" fill="#59B4F4"/>
<rect width="72.8706" height="72.8706" transform="matrix(0.866025 0.5 -2.20305e-08 1 0 126.733)" fill="#478FC2"/>
<rect width="72.8706" height="72.8706" transform="matrix(0.866025 -0.5 2.20305e-08 1 62.594 163.871)" fill="#1E5277"/>
<rect width="72.8706" height="72.8706" transform="matrix(0.866025 0.5 -0.866025 0.5 200.87 164.242)" fill="#59B4F4"/>
<rect width="72.8706" height="72.8706" transform="matrix(0.866025 0.5 -2.20305e-08 1 138 200)" fill="#478FC2"/>
<rect width="72.8706" height="72.8706" transform="matrix(0.866025 -0.5 2.20305e-08 1 200.357 237.113)" fill="#1E5277"/>
<rect width="72.8706" height="72.8706" transform="matrix(0.866025 0.5 -0.866025 0.5 200.87 0)" fill="#59B4F4"/>
<rect width="72.8706" height="72.8706" transform="matrix(0.866025 0.5 -2.20305e-08 1 138 36)" fill="#478FC2"/>
<rect width="72.8706" height="72.8706" transform="matrix(0.866025 -0.5 2.20305e-08 1 200.357 72.8706)" fill="#1E5277"/>
<rect width="72.8706" height="72.8706" transform="matrix(0.866025 0.5 -0.866025 0.5 200.87 327.546)" fill="#59B4F4"/>
<rect width="72.8706" height="72.8706" transform="matrix(0.866025 0.5 -2.20305e-08 1 138 364)" fill="#478FC2"/>
<rect width="72.8706" height="72.8706" transform="matrix(0.866025 -0.5 2.20305e-08 1 200.357 400.417)" fill="#1E5277"/>
<rect width="72.8706" height="72.8706" transform="matrix(0.866025 0.5 -0.866025 0.5 340.108 255)" fill="#59B4F4"/>
<rect width="72.8706" height="72.8706" transform="matrix(0.866025 0.5 -2.20305e-08 1 277.475 290.721)" fill="#478FC2"/>
<rect width="72.8706" height="72.8706" transform="matrix(0.866025 -0.5 2.20305e-08 1 339.594 327.871)" fill="#1E5277"/>
<rect width="72.8706" height="72.8706" transform="matrix(0.866025 0.5 -0.866025 0.5 63.1078 254)" fill="#59B4F4"/>
<rect width="72.8706" height="72.8706" transform="matrix(0.866025 0.5 -2.20305e-08 1 0 290.491)" fill="#478FC2"/>
<rect width="72.8706" height="72.8706" transform="matrix(0.866025 -0.5 2.20305e-08 1 62.5939 326.871)" fill="#1E5277"/>
<rect width="72.8706" height="72.8706" transform="matrix(0.866025 0.5 -0.866025 0.5 339.108 91)" fill="#59B4F4"/>
<rect width="72.8706" height="72.8706" transform="matrix(0.866025 0.5 -2.20305e-08 1 276.475 127.024)" fill="#478FC2"/>
<rect width="72.8706" height="72.8706" transform="matrix(0.866025 -0.5 2.20305e-08 1 338.594 163.871)" fill="#1E5277"/>
</svg>
