<svg width="1021" height="184" viewBox="0 0 1021 184" fill="none" xmlns="http://www.w3.org/2000/svg">
<path d="M117.789 3.26562L117.911 122.162C117.911 131.358 116.487 139.74 113.639 147.309C110.872 154.796 106.925 161.225 101.798 166.596C96.5895 171.967 90.3232 176.117 82.999 179.047C75.7562 181.977 67.6182 183.441 58.585 183.441C49.7145 183.441 41.6986 182.017 34.5371 179.169C27.3757 176.239 21.2721 172.089 16.2266 166.718C11.0996 161.347 7.11198 154.877 4.26367 147.309C1.49674 139.74 0.0725911 131.358 -0.00878906 122.162L0.235352 3.26562H29.166L29.4102 122.162C29.4915 127.777 30.1833 132.945 31.4854 137.665C32.7874 142.304 34.6999 146.251 37.2227 149.506C39.6641 152.598 42.6344 155.04 46.1338 156.83C49.7145 158.539 53.8649 159.394 58.585 159.394C63.3864 159.394 67.6182 158.539 71.2803 156.83C75.0238 155.04 78.1569 152.517 80.6797 149.262C83.2025 145.925 85.1149 141.978 86.417 137.421C87.7191 132.782 88.4515 127.696 88.6143 122.162L88.8584 3.26562H117.789ZM267.081 181H237.662L179.923 58.6855L179.801 181H150.138V3.26562H179.923L237.296 125.092L237.54 3.26562H267.081V181ZM306.876 3.26562H411.612V27.5576H373.648V156.83H411.612V181H306.876V156.83H343.985V27.5576H306.876V3.26562ZM578.727 27.5576H523.917V181H494.742V27.5576H440.299V3.26562H578.727V27.5576ZM722.77 126.312C721.956 134.939 719.921 142.792 716.666 149.872C713.411 156.871 709.138 162.852 703.849 167.816C698.478 172.862 692.089 176.768 684.684 179.535C677.359 182.221 669.221 183.563 660.27 183.563C652.945 183.563 646.191 182.587 640.006 180.634C633.902 178.599 628.45 175.751 623.648 172.089C619.01 168.671 614.941 164.561 611.441 159.76C608.023 154.877 605.134 149.547 602.774 143.769C600.414 138.072 598.624 131.887 597.403 125.214C596.264 118.541 595.694 111.583 595.694 104.34V80.0479C595.694 73.1305 596.264 66.4574 597.403 60.0283C598.543 53.5993 600.252 47.5365 602.53 41.8398C604.972 35.4922 608.105 29.7549 611.93 24.6279C615.836 19.4196 620.312 14.9844 625.357 11.3223C630.159 7.98568 635.449 5.38151 641.227 3.50977C647.086 1.63802 653.474 0.702148 660.392 0.702148C669.75 0.702148 678.092 2.08561 685.416 4.85254C692.822 7.61947 699.129 11.5257 704.337 16.5713C709.627 21.6982 713.777 27.8831 716.788 35.126C719.881 42.3688 721.874 50.4255 722.77 59.2959H693.473C692.984 54.0062 691.967 49.2454 690.421 45.0137C688.956 40.7005 686.922 37.0384 684.317 34.0273C681.632 31.0163 678.336 28.7376 674.43 27.1914C670.523 25.5638 665.844 24.75 660.392 24.75C656.567 24.75 653.108 25.279 650.016 26.3369C647.005 27.3949 644.319 28.9004 641.959 30.8535C638.704 33.2135 635.978 36.306 633.78 40.1309C631.664 43.8743 629.915 48.0654 628.531 52.7041C627.473 56.7731 626.66 61.127 626.09 65.7656C625.602 70.3229 625.357 75.0023 625.357 79.8037V104.34C625.357 110.281 625.683 115.855 626.334 121.063C627.066 126.272 628.165 131.033 629.63 135.346C630.769 138.926 632.193 142.182 633.902 145.111C635.693 148.041 637.809 150.564 640.25 152.68C642.773 154.958 645.662 156.708 648.917 157.929C652.254 159.068 656.038 159.638 660.27 159.638C665.315 159.638 669.791 158.905 673.697 157.44C677.604 155.976 680.94 153.819 683.707 150.971C686.393 148.204 688.549 144.745 690.177 140.595C691.804 136.444 692.862 131.684 693.351 126.312H722.77ZM812.613 112.03H782.584V181H753.287V3.26562H809.684C818.88 3.34701 827.343 4.52702 835.074 6.80566C842.805 9.08431 849.479 12.4209 855.094 16.8154C860.628 21.2913 864.941 26.8659 868.033 33.5391C871.126 40.1309 872.672 47.862 872.672 56.7324C872.672 62.8359 871.858 68.3698 870.23 73.334C868.684 78.2982 866.487 82.7741 863.639 86.7617C860.79 90.7493 857.372 94.2487 853.385 97.2598C849.397 100.271 844.962 102.875 840.079 105.072L878.043 179.413V181H846.671L812.613 112.03ZM782.584 88.1045H810.05C815.258 88.0231 819.938 87.25 824.088 85.7852C828.32 84.2389 831.9 82.0417 834.83 79.1934C837.434 76.752 839.469 73.7409 840.934 70.1602C842.398 66.5794 843.131 62.5104 843.131 57.9531C843.131 52.8262 842.317 48.3503 840.689 44.5254C839.143 40.6191 836.824 37.3639 833.731 34.7598C830.883 32.3184 827.424 30.4873 823.355 29.2666C819.286 27.9645 814.729 27.2728 809.684 27.1914H782.584V88.1045ZM937.857 3.26562L959.83 79.3154L984.122 3.26562H1020.62V181H993.033V120.697L994.742 41.3516L967.398 126.19H952.14L927.359 44.2812L928.946 120.697V181H901.48V3.26562H937.857Z" fill="white"/>
</svg>
